<?xml version="1.0" encoding="iso-8859-1"?>
<!-- Generator: Adobe Illustrator 18.1.1, SVG Export Plug-In . SVG Version: 6.00 Build 0)  -->
<svg version="1.1" id="Capa_1" xmlns="http://www.w3.org/2000/svg" xmlns:xlink="http://www.w3.org/1999/xlink" x="0px" y="0px"
	 viewBox="0 0 310.755 310.755" style="enable-background:new 0 0 310.755 310.755;" xml:space="preserve">
<g>
	<g>
		<path style="fill:#010002;" d="M250.926,51.704H59.83C26.842,51.704,0,78.546,0,111.533v87.689c0,32.988,26.842,59.83,59.83,59.83
			h191.096c32.988,0,59.83-26.842,59.83-59.83v-87.689C310.755,78.54,283.914,51.704,250.926,51.704z M299.877,199.222
			c0,26.994-21.963,48.952-48.952,48.952H59.83c-26.989,0-48.952-21.958-48.952-48.952v-87.689
			c0-26.994,21.963-48.952,48.952-48.952h191.096c26.989,0,48.952,21.958,48.952,48.952
			C299.877,111.533,299.877,199.222,299.877,199.222z"/>
		<path style="fill:#010002;" d="M92.725,146.572c18.302,0,33.189-14.887,33.189-33.195c0-18.297-14.887-33.189-33.189-33.189
			s-33.189,14.887-33.189,33.189C59.536,131.685,74.423,146.572,92.725,146.572z M92.725,91.072
			c12.303,0,22.311,10.008,22.311,22.311s-10.008,22.316-22.311,22.316s-22.311-10.013-22.311-22.316S80.422,91.072,92.725,91.072z"
			/>
		<path style="fill:#010002;" d="M141.16,167.964l-22.762-10.405c-6.902-3.155-16.023-4.89-25.694-4.89
			c-9.263,0-18.107,1.61-24.9,4.542l-23.415,10.106c-1.991,0.859-3.285,2.823-3.285,4.993v23.687
			c0,16.056,14.109,29.121,31.454,29.121h40.32c17.345,0,31.454-12.934,31.454-28.827v-23.388
			C144.342,170.776,143.096,168.845,141.16,167.964z M133.464,196.296c0,9.894-9.23,17.949-20.576,17.949h-40.32
			c-11.346,0-20.576-8.186-20.576-18.243v-20.114l20.13-8.692c5.461-2.355,12.771-3.65,20.587-3.65
			c8.023,0,15.741,1.425,21.174,3.905l19.586,8.953v19.891H133.464z"/>
		<path style="fill:#010002;" d="M173.055,110.299h80.226c3.002,0,5.439-2.431,5.439-5.439c0-3.008-2.437-5.439-5.439-5.439h-80.226
			c-3.002,0-5.439,2.431-5.439,5.439C167.616,107.868,170.052,110.299,173.055,110.299z"/>
		<path style="fill:#010002;" d="M270.632,147.225H162.514c-3.002,0-5.439,2.431-5.439,5.439s2.437,5.439,5.439,5.439h108.118
			c3.002,0,5.439-2.431,5.439-5.439S273.639,147.225,270.632,147.225z"/>
		<path style="fill:#010002;" d="M270.632,178.01H162.514c-3.002,0-5.439,2.431-5.439,5.439s2.437,5.439,5.439,5.439h108.118
			c3.002,0,5.439-2.431,5.439-5.439S273.639,178.01,270.632,178.01z"/>
		<path style="fill:#010002;" d="M270.632,208.795H162.514c-3.002,0-5.439,2.431-5.439,5.439c0,3.008,2.437,5.439,5.439,5.439
			h108.118c3.002,0,5.439-2.431,5.439-5.439C276.071,211.226,273.639,208.795,270.632,208.795z"/>
	</g>
</g>
<g>
</g>
<g>
</g>
<g>
</g>
<g>
</g>
<g>
</g>
<g>
</g>
<g>
</g>
<g>
</g>
<g>
</g>
<g>
</g>
<g>
</g>
<g>
</g>
<g>
</g>
<g>
</g>
<g>
</g>
</svg>
